<svg xmlns="http://www.w3.org/2000/svg" viewBox="0 0 431.56 420.47"><defs><style>.cls-1{fill:#131518;}.cls-2{fill:#141518;}.cls-3{fill:#141519;}.cls-4{fill:#151619;}</style></defs><g id="Capa_2" data-name="Capa 2"><g id="Capa_6" data-name="Capa 6"><path class="cls-1" d="M99.38,243.71c0-5.16-.23-10.31.48-15.47.33-2.36,1.15-3.33,3.51-2.63a8.08,8.08,0,0,0,1,.19c3.61.57,8.27,0,10.49,2.06,1.69,1.57.19,6.47.26,9.89.36,19.1,16.18,35.08,36.55,37,18.85,1.78,37.7-11.95,41.45-30.27a28.06,28.06,0,0,0,.88-7.9c-.33-3.69.67-4.85,4.52-4.77,12.15.25,24.31.07,36.47.09,2.08,0,4.44-.62,3.91,3.14-2.63,18.43,11.59,35.55,30.48,39.57,20.69,4.4,41.72-7.56,47.11-27.22a27.74,27.74,0,0,0,0-16.24c-.9-2.75-.38-3.91,2.71-4.05a42.78,42.78,0,0,0,9.38-1.33c3.68-1,4.69.3,4.8,3.78.64,21.13-.86,41.76-9.78,61.51-11.82,26.17-25.93,50.64-47,70.54a123.62,123.62,0,0,1-29.4,20.45c-22.66,11.43-44.59,9.57-66.28-2.68-26.94-15.21-45-38.52-59.79-64.88a246.53,246.53,0,0,1-16.67-36.8C100.41,266.71,100.6,255.1,99.38,243.71Z"/><path class="cls-1" d="M217.5,122.71c-38.58,1-74.79-8.37-109.3-25.17-3.34-1.62-4.24-3-2.88-6.71,7.83-21.39,15.26-42.93,23-64.34S153.72-4.24,176,1.83c17.69,4.82,35.46,7.47,53.79,5.52A165,165,0,0,0,256.6,1.91c8.52-2.37,17.06-2.68,25.54.33,10.16,3.61,17.41,10.4,21.11,20.5,8.44,23.11,16.55,46.34,25,69.45,1.18,3.25-.47,4.06-2.64,5.17-29.43,15-60.41,24.31-93.62,25.33C227.16,122.84,222.33,122.71,217.5,122.71Z"/><path class="cls-1" d="M217.51,219.82c-35.67,1.18-70.61.5-105.33-4.62-27.05-4-54-8.46-78.73-21-8.76-4.46-17.36-9.22-24.52-16.11-7.78-7.49-7.13-12.63,2.57-17.61,12.45-6.38,26.12-8.72,39.7-11.22,1.8-.33,3.65-.46,5.42-.88,13.72-3.24,26.16-1.17,39.35,4.77,42.92,19.33,88.36,26.12,135.36,24.58a283.65,283.65,0,0,0,119-30.12,11.76,11.76,0,0,1,6.64-1.54c18.43,1.74,36.66,4.47,54.35,10.13a52.46,52.46,0,0,1,12.7,5.74c6.52,4.24,7.24,8.58,1.93,14.3-7.49,8.06-17,13.26-26.7,18.14-22.78,11.48-47.46,16.06-72.34,20C290.44,220.12,253.7,221.15,217.51,219.82Z"/><path class="cls-1" d="M337.55,420.29c-10.33,0-20.66-.09-31,0-3.19.05-4.74-.45-4.83-4.27-.43-18.14-1.17-36.28-1.9-54.42a7.89,7.89,0,0,1,2.27-6.24q34-36.63,67.72-73.45c2.54-2.78,4.2-2.68,6.86-.32Q403,305,429.59,328.1c3.42,3,1.92,4.32-1,6.17Q390.17,358.59,351.87,383c-5.41,3.45-5.45,3.5-1.37,8.28,6.82,8,13.71,15.87,20.54,23.84,1,1.19,3,2.24,2,4.14s-3,.95-4.54,1C358.21,420.34,347.88,420.3,337.55,420.29Z"/><path class="cls-1" d="M93.8,420.3c-10.5,0-21,0-31.5,0-1.4,0-3.25.59-3.9-1.29-.52-1.49,1-2.36,1.78-3.33,7.16-8.33,14.23-16.74,21.59-24.89,2.79-3.09,3-4.74-.86-7.15C55.26,367.49,29.74,351.15,4.17,334.9c-5.46-3.47-5.46-3.73-.58-8,16.9-14.8,33.82-29.59,50.58-44.55,3.23-2.89,5.14-3.18,8.32.31q33.32,36.54,67.07,72.68a8,8,0,0,1,2.43,6.2c-.73,18.14-1.42,36.28-1.89,54.43-.09,3.64-1.51,4.45-4.81,4.4C114.79,420.2,104.29,420.3,93.8,420.3Z"/><path class="cls-1" d="M218.73,166.09c-44.31.92-85.88-9-125.83-26.68-3.48-1.54-3.87-3-2.58-6.3,2.9-7.43,5.54-15,8-22.55,1-3,1.88-4,5.15-2.38,45.42,23.16,93.76,30,144.05,25.14,28.64-2.78,55.67-11.32,81.23-24.46,3.5-1.8,4.93-1.78,6.17,2.36,2.24,7.48,4.91,14.85,7.84,22.09,1.42,3.5.54,4.77-2.69,6.28C301.51,157.66,261.06,167.11,218.73,166.09Z"/><path class="cls-2" d="M305.28,238.47c-.48,10.55-5.3,17.64-13.69,22-9.53,4.94-19.33,4.74-28.59-.9-8.73-5.32-12.76-13.24-11.92-23.56.23-2.8,1.22-4,4.29-4a377.59,377.59,0,0,0,43.83-2.65c3.13-.37,4.71.52,5.16,3.58C304.67,235,305.06,237.14,305.28,238.47Z"/><path class="cls-3" d="M154.78,263.21c-16,.13-29.45-14.52-27.37-29.63.46-3.29,1.35-4.89,5.26-4.38a356.79,356.79,0,0,0,45.27,2.65c4,0,3.8,2.25,3.78,4.74C181.64,251,169.39,263.09,154.78,263.21Z"/><path class="cls-4" d="M87.81,260.1c-15.12-4.48-27.54-24-25.57-39.85.26-2.07.91-2.48,2.82-2,6.81,1.55,13.65,3,20.46,4.5,1.2.27,2.92.22,2.54,2.25-2.16,11.6-.61,23.19,0,34.79C88.07,259.86,87.9,260,87.81,260.1Z"/><path class="cls-2" d="M344.74,260.68c.82-10.15,2-19.74,1.15-29.37-.71-8.25-.72-8.19,7.18-9.74,4.57-.9,9.13-1.88,13.62-3.1,2.89-.78,4.12-.56,4.21,3C371.3,238.44,361.58,253.56,344.74,260.68Z"/></g></g></svg>