<svg xmlns="http://www.w3.org/2000/svg" viewBox="0 0 470.85 404.15"><defs><style>.cls-1{fill:#131418;}.cls-2{fill:#847e84;}.cls-3{fill:#131518;}</style></defs><g id="Capa_2" data-name="Capa 2"><g id="Capa_6" data-name="Capa 6"><path class="cls-1" d="M186.34,0c6.67-.27,13.82,2,21.08,3.86a110.21,110.21,0,0,0,59.68-1c16.11-4.71,31.56-4,46,5.29A44.75,44.75,0,0,1,331.2,31.37q18.42,51.43,36.53,103c1.29,3.7,3.07,4.66,6.65,5,18.26,1.76,36.36,4.43,53.62,11,6.24,2.37,12.19,5.38,17.08,10.09,7.14,6.87,8.3,15.57,3.07,24-4.41,7.11-10.9,12.08-17.82,16.47A150.3,150.3,0,0,1,399,216.29c-2.61.91-3.42,2.14-3.39,5,.26,25.14-11.23,42.79-34.14,52.28a10.32,10.32,0,0,0-6.34,6.85c-11.69,32.87-28.07,62.95-54.08,86.83-17,15.6-36.41,26.88-59.93,29.27-19.53,2-36.72-5-52.82-15-22.63-14-38.91-34.08-52.33-56.69a245.86,245.86,0,0,1-21-45.74,7.45,7.45,0,0,0-4.82-5.06c-23.21-9.23-35.42-27.29-35-52.17.06-3.62-1.32-4.73-4.32-5.88-14.49-5.59-28.53-12.16-40.32-22.53-16.74-14.72-14.71-30,5.29-40,16.66-8.28,34.73-11.84,53-13.1,9.79-.67,14-4.23,17-13.43,10.51-31.72,22-63.12,33.29-94.58C146.52,11.92,163.68.06,186.34,0Z"/><path class="cls-2" d="M344.17,242.65c1,25.68-8.86,48.12-21,69.84s-26.69,41.09-47.63,54.93c-15.64,10.34-32.39,17.5-51.73,13-16.78-3.93-31-12.87-43.38-24.6-24.27-23-39.91-51.44-50.25-82.77-4.11-12.47-4.09-25.93-3.77-39.12,0-2-.07-5,3.38-3.83,2.66.91,7.59-1.89,7.29,4.5-.83,17.54,7.78,31.59,23.17,38.41a40.05,40.05,0,0,0,44-7.74c7.24-7,11.41-15.55,11.72-25.67.1-3.06.57-4.4,4.08-4.31,10,.25,20,.16,30,0,2.75,0,4.06.23,4,3.68-.1,20.42,14.09,35.3,35.61,37.73,19.88,2.25,38.76-10.68,42.93-29.48a30.17,30.17,0,0,0,.08-12.9c-.49-2.36,0-3.16,2.37-3.69,8.65-2,9-1.77,9,7Z"/><path class="cls-2" d="M238.13,127.94c-34,1.48-68.85-7-102.19-22.83-3.88-1.84-4.46-3.63-3-7.56,7.24-19.84,14-39.84,21.26-59.69,6.52-17.9,22-26.34,40.58-21.51,16.07,4.18,32.14,7.1,48.8,6,10.36-.67,20.39-2.91,30.37-5.6,20.62-5.55,36.09,2.71,43.22,22.85,7,19.75,13.9,39.52,21.1,59.19,1.22,3.34.42,4.58-2.47,6C306,119.75,274.68,128.24,238.13,127.94Z"/><path class="cls-2" d="M235.61,220c-35,1.16-69.07.3-103-4.89-25.4-3.89-50.54-8.58-73.47-21-6.73-3.65-13.35-7.53-19-12.84C33.59,175,34,171.4,42.08,167.36c12.67-6.34,26.5-8.65,40.28-11,1.64-.29,3.29-.52,4.94-.77,9.91-1.54,19-1.32,28.87,3.26,48.43,22.48,99.76,28.85,152.57,24a259.46,259.46,0,0,0,93.38-27.09c2.11-1.06,4.1-2,6.6-1.77,18.6,1.75,37,4.37,54.62,11a41.49,41.49,0,0,1,8,4c4.72,3.09,4.94,5.38,1.43,9.74-4.27,5.29-10,8.79-15.67,12.21-20.62,12.37-43.4,18.18-66.83,22.28C312,219.9,273.5,221.47,235.61,220Z"/><path class="cls-3" d="M235.89,168.94c-39.32.79-77.42-8.17-114.13-23.93-3.84-1.65-4.86-3.27-3.09-7.27a137.79,137.79,0,0,0,5.61-16c1.07-3.55,2.47-4.22,5.94-2.5a215.77,215.77,0,0,0,58,19.49c52.68,9.44,103.78,5.19,152.25-19.16,3.19-1.61,4.77-1.85,5.92,2.17a177.85,177.85,0,0,0,6.11,17.41c1.13,2.83.49,4.1-2.17,5.33A267.22,267.22,0,0,1,280,166.15C265.68,168.45,251.22,169.07,235.89,168.94Z"/><path class="cls-2" d="M317.33,239.89c-.52,9.76-5.27,16.22-13.53,19.77-9.48,4.06-18.56,2.78-26.49-4a20,20,0,0,1-7.22-16.75c.1-2.37.92-3.57,3.6-3.52a317.37,317.37,0,0,0,38.74-2C318.67,232.67,316,237.8,317.33,239.89Z"/><path class="cls-2" d="M176.76,261.18a23.85,23.85,0,0,1-23.83-24.27c.08-3,.95-4,4.1-3.68a319.64,319.64,0,0,0,39.37,2.09c3.35-.07,3.85,1.37,3.68,4.2C199.38,251.21,188.75,261.16,176.76,261.18Z"/><path class="cls-2" d="M359.7,257c.55-9.47,1.16-18.45.18-27.41-.2-1.82.25-2.82,2.11-3.2,4.88-1,9.75-2.07,14.61-3.19,2.25-.51,2.86.29,2.89,2.53C379.66,238.17,371.49,251.48,359.7,257Z"/><path class="cls-2" d="M111,256.86c-11.58-4.81-21.13-20.59-19.8-31.92.22-1.92,1-2.16,2.57-1.81,5,1.11,10,2.21,15.09,3.24,1.29.26,2.18.68,2.1,2.19-.27,4.81-.72,9.62-.72,14.42C110.25,247.54,110.73,252.11,111,256.86Z"/><g id="Capa_8" data-name="Capa 8"><path class="cls-3" d="M370.89,404c10.5,0,21,0,31.5,0,1.4,0,3.25.59,3.9-1.29.52-1.49-1-2.36-1.78-3.33-7.16-8.33-14.23-16.74-21.59-24.89-2.79-3.1-3-4.74.86-7.15,25.65-16.12,51.17-32.46,76.74-48.71,5.46-3.47,5.46-3.73.58-8C444.2,295.75,427.28,281,410.52,266c-3.23-2.89-5.14-3.18-8.32.31Q368.89,302.85,335.13,339a8,8,0,0,0-2.43,6.2c.73,18.14,1.42,36.28,1.89,54.43.09,3.64,1.51,4.45,4.81,4.4C349.9,403.86,360.4,404,370.89,404Z"/><path class="cls-2" d="M409.61,263a7.31,7.31,0,0,0-6.27,4.95c-1.2,3.31.17,5.77,2.58,7.88l30.77,27c4,3.51,7.89,7.18,12.05,10.51,2.48,2,2.89,2.93-.29,4.75-22.07,12.57-43.91,25.56-66.1,37.93-11.33,6.31-13.57,11.26-3.76,21.4,6.85,7.08,12.93,14.9,19.36,22.39,2,2.33,4.19,4.21,7.58,4a7.19,7.19,0,0,0,6.44-4,6.63,6.63,0,0,0-1.14-7.82c-5.95-6.87-11.78-13.84-17.84-20.61-2-2.29-2.22-3.34.77-5,23.42-13.38,46.73-27,70.1-40.44,8.65-5,9.29-10.63,1.8-17.21q-24.21-21.25-48.41-42.5A10.72,10.72,0,0,0,409.61,263Z"/></g><g id="Capa_9" data-name="Capa 9"><path class="cls-3" d="M100,404.08c-10.49,0-21,0-31.49,0-1.4,0-3.26.6-3.9-1.28-.52-1.49,1-2.36,1.78-3.33,7.16-8.33,14.23-16.74,21.59-24.89,2.79-3.1,3-4.74-.86-7.15-25.65-16.12-51.17-32.46-76.74-48.71-5.46-3.47-5.46-3.74-.58-8,16.9-14.81,33.82-29.59,50.58-44.56,3.23-2.88,5.14-3.17,8.32.32Q102,303,135.72,339.12a7.89,7.89,0,0,1,2.42,6.2c-.72,18.14-1.41,36.28-1.88,54.43-.1,3.63-1.51,4.45-4.82,4.4C121,404,110.45,404.09,100,404.08Z"/><path class="cls-2" d="M61.23,263.12a7.31,7.31,0,0,1,6.28,4.95c1.19,3.31-.17,5.77-2.58,7.88l-30.78,27c-4,3.51-7.89,7.18-12,10.51-2.48,2-2.89,2.93.29,4.74,22.07,12.58,43.91,25.57,66.09,37.94,11.34,6.31,13.58,11.26,3.77,21.4-6.85,7.08-12.94,14.9-19.36,22.39-2,2.33-4.19,4.21-7.58,4a7.18,7.18,0,0,1-6.44-4A6.61,6.61,0,0,1,60,392.05c5.95-6.87,11.78-13.84,17.83-20.61,2.05-2.29,2.22-3.34-.76-5C53.66,353,30.36,339.43,7,326c-8.65-5-9.3-10.63-1.8-17.21Q29.4,287.5,53.6,266.25A10.67,10.67,0,0,1,61.23,263.12Z"/></g></g></g></svg>