<svg xmlns="http://www.w3.org/2000/svg" viewBox="0 0 432.12 420.23"><defs><style>.cls-1{fill:#131418;}.cls-2{fill:#131417;}.cls-3{fill:#fff;}.cls-4{fill:#fefefe;}.cls-5{fill:#fafafa;}.cls-6{fill:#fcfcfc;}</style></defs><g id="Capa_2" data-name="Capa 2"><g id="Capa_6" data-name="Capa 6"><path class="cls-1" d="M167.07,0c6.67-.27,13.82,2,21.08,3.86a110.21,110.21,0,0,0,59.68-1c16.11-4.71,31.56-4,46,5.29a44.75,44.75,0,0,1,18.07,23.22c12.27,34.29,24.53,68.58,36.53,103,1.29,3.7,3.07,4.66,6.65,5,18.25,1.76,36.36,4.43,53.62,11,6.24,2.37,12.18,5.38,17.07,10.09,7.14,6.87,8.31,15.57,3.08,24-4.41,7.11-10.91,12.08-17.82,16.47a150.3,150.3,0,0,1-31.3,15.37c-2.61.91-3.43,2.14-3.39,5,.26,25.14-11.24,42.79-34.14,52.28a10.32,10.32,0,0,0-6.34,6.85c-11.69,32.87-28.07,62.95-54.08,86.83-17,15.6-36.41,26.88-59.93,29.27-19.53,2-36.72-5-52.83-15-22.62-14-38.91-34.08-52.32-56.69a245.86,245.86,0,0,1-21-45.74A7.45,7.45,0,0,0,90.94,274c-23.21-9.23-35.41-27.29-35-52.17.06-3.62-1.33-4.73-4.32-5.88-14.49-5.59-28.53-12.16-40.32-22.53-16.74-14.72-14.71-30,5.29-40,16.66-8.28,34.73-11.84,53-13.1,9.8-.67,14-4.23,17-13.43,10.5-31.72,22-63.12,33.29-94.58C127.25,11.92,144.4.06,167.07,0Z"/><path class="cls-1" d="M67.32,270.48A7.76,7.76,0,0,1,74,275.75c1.27,3.52-.18,6.13-2.73,8.38L38.63,312.8c-4.24,3.74-8.36,7.64-12.76,11.18-2.63,2.12-3.07,3.12.3,5,23.39,13.37,46.53,27.19,70,40.34,12,6.72,14.38,12,4,22.76C92.94,399.67,86.49,408,79.69,416c-2.12,2.48-4.45,4.47-8,4.24a7.61,7.61,0,0,1-6.82-4.27c-1.48-3-1-5.77,1.21-8.31,6.3-7.3,12.48-14.72,18.89-21.92,2.17-2.44,2.36-3.55-.81-5.36-24.82-14.23-49.51-28.68-74.27-43C.68,332,0,326,7.94,319q25.65-22.59,51.29-45.19A11.35,11.35,0,0,1,67.32,270.48Z"/><path class="cls-2" d="M325.55,380.94c-.35-5,3.2-7.26,6.88-9.39,21.87-12.68,43.78-25.29,65.61-38,3.66-2.14,9.58-3.31,10.09-7,.33-2.35-5.39-5.61-8.5-8.36q-18.15-16-36.36-31.93c-.63-.55-1.26-1.1-1.86-1.67-4.18-4-4.78-7.8-1.78-11.29s8.26-3.8,12.42-.17c9.91,8.63,19.74,17.35,29.6,26,7.62,6.69,15.31,13.31,22.87,20.07s7,12.86-2,18.05c-24.6,14.26-49.12,28.65-73.82,42.71-3.85,2.2-3.53,3.47-1,6.31,6,6.65,11.83,13.52,17.63,20.37,3.6,4.25,3.65,8.49.36,11.49-3.51,3.21-8.7,2.8-12.35-1.35-8.68-9.86-17.2-19.86-25.8-29.79A8.18,8.18,0,0,1,325.55,380.94Z"/><path class="cls-3" d="M324.9,242.65c1,25.68-8.86,48.12-21,69.84s-26.69,41.09-47.63,54.93c-15.64,10.34-32.39,17.5-51.73,13-16.78-3.93-31-12.87-43.38-24.6-24.28-23-39.91-51.44-50.25-82.77-4.11-12.47-4.09-25.93-3.78-39.12,0-2-.06-5,3.38-3.83,2.67.91,7.6-1.89,7.3,4.5C117,252.12,125.63,266.17,141,273a40.07,40.07,0,0,0,44.05-7.74c7.24-7,11.4-15.55,11.72-25.67.1-3.06.57-4.4,4.08-4.31,10,.25,20,.16,30,0,2.75,0,4,.23,4,3.68-.11,20.42,14.08,35.3,35.61,37.73,19.88,2.25,38.76-10.68,42.93-29.48a30.33,30.33,0,0,0,.08-12.9c-.5-2.36,0-3.16,2.36-3.69,8.66-2,9-1.77,9,7Z"/><path class="cls-3" d="M218.86,127.94c-34,1.48-68.85-7-102.19-22.83-3.89-1.84-4.46-3.63-3-7.56,7.23-19.84,14-39.84,21.26-59.69,6.52-17.9,22-26.34,40.58-21.51,16.07,4.18,32.14,7.1,48.8,6,10.35-.67,20.39-2.91,30.37-5.6,20.62-5.55,36.09,2.71,43.22,22.85,7,19.75,13.9,39.52,21.1,59.19,1.22,3.34.42,4.58-2.47,6C286.73,119.75,255.41,128.24,218.86,127.94Z"/><path class="cls-3" d="M216.34,220c-35,1.16-69.08.3-103-4.89-25.4-3.89-50.54-8.58-73.47-21-6.73-3.65-13.35-7.53-19-12.84-6.63-6.26-6.22-9.81,1.86-13.85,12.67-6.34,26.5-8.65,40.28-11,1.64-.29,3.29-.52,4.93-.77,9.92-1.54,19-1.32,28.88,3.26,48.43,22.48,99.75,28.85,152.57,24a259.46,259.46,0,0,0,93.38-27.09c2.11-1.06,4.1-2,6.6-1.77,18.59,1.75,37,4.37,54.62,11a41.78,41.78,0,0,1,8,4c4.71,3.09,4.94,5.38,1.42,9.74-4.26,5.29-10,8.79-15.66,12.21-20.62,12.37-43.4,18.18-66.83,22.28C292.74,219.9,254.23,221.47,216.34,220Z"/><path class="cls-3" d="M216.61,168.94c-39.31.79-77.41-8.17-114.12-23.93-3.85-1.65-4.86-3.27-3.09-7.27a139.68,139.68,0,0,0,5.61-16c1.07-3.55,2.46-4.22,5.94-2.5a215.82,215.82,0,0,0,58,19.49c52.69,9.44,103.79,5.19,152.26-19.16,3.19-1.61,4.77-1.85,5.92,2.17a177.78,177.78,0,0,0,6.1,17.41c1.14,2.83.5,4.1-2.16,5.33a267.22,267.22,0,0,1-70.33,21.67C246.41,168.45,232,169.07,216.61,168.94Z"/><path class="cls-4" d="M298.06,239.89c-.52,9.76-5.27,16.22-13.53,19.77-9.48,4.06-18.56,2.78-26.49-4a20,20,0,0,1-7.22-16.75c.1-2.37.92-3.57,3.59-3.52a317.43,317.43,0,0,0,38.75-2C299.4,232.67,296.76,237.8,298.06,239.89Z"/><path class="cls-4" d="M157.49,261.18a23.85,23.85,0,0,1-23.83-24.27c.08-3,1-4,4.1-3.68a319.58,319.58,0,0,0,39.36,2.09c3.36-.07,3.86,1.37,3.69,4.2C180.11,251.21,169.48,261.16,157.49,261.18Z"/><path class="cls-5" d="M340.43,257c.55-9.47,1.15-18.45.17-27.41-.2-1.82.25-2.82,2.12-3.2,4.88-1,9.75-2.07,14.61-3.19,2.25-.51,2.86.29,2.89,2.53C360.38,238.17,352.22,251.48,340.43,257Z"/><path class="cls-6" d="M91.74,256.86c-11.58-4.81-21.13-20.59-19.8-31.92.22-1.92,1-2.16,2.57-1.81,5,1.11,10,2.21,15.08,3.24,1.3.26,2.19.68,2.11,2.19-.27,4.81-.72,9.62-.72,14.42C91,247.54,91.46,252.11,91.74,256.86Z"/></g></g></svg>